<svg xmlns="http://www.w3.org/2000/svg" xmlns:xlink="http://www.w3.org/1999/xlink" version="1.1" class="marks" width="888" height="752" viewBox="0 0 444 376"><rect width="444" height="376" fill="white"/><g fill="none" stroke-miterlimit="10" transform="translate(39,10)"><g class="mark-group role-frame root" role="graphics-object" aria-roledescription="group mark container"><g transform="translate(0,0)"><path class="background" aria-hidden="true" d="M0.5,0.5h400v300h-400Z" stroke="#ddd"/><g><g class="mark-group role-axis" aria-hidden="true"><g transform="translate(0.5,0.5)"><path class="background" aria-hidden="true" d="M0,0h0v0h0Z" pointer-events="none"/><g><g class="mark-rule role-axis-grid" pointer-events="none"><line transform="translate(0,300)" x2="400" y2="0" stroke="#ddd" stroke-width="1" opacity="1"/><line transform="translate(0,250)" x2="400" y2="0" stroke="#ddd" stroke-width="1" opacity="1"/><line transform="translate(0,200)" x2="400" y2="0" stroke="#ddd" stroke-width="1" opacity="1"/><line transform="translate(0,150)" x2="400" y2="0" stroke="#ddd" stroke-width="1" opacity="1"/><line transform="translate(0,100)" x2="400" y2="0" stroke="#ddd" stroke-width="1" opacity="1"/><line transform="translate(0,50)" x2="400" y2="0" stroke="#ddd" stroke-width="1" opacity="1"/><line transform="translate(0,0)" x2="400" y2="0" stroke="#ddd" stroke-width="1" opacity="1"/></g></g><path class="foreground" aria-hidden="true" d="" pointer-events="none" display="none"/></g></g><g class="mark-group role-axis" role="graphics-symbol" aria-roledescription="axis" aria-label="X-axis titled 'Année de Lancement' for a discrete scale with 16 values: 1/29/20, 1/7/20, 10/18/20, 10/24/20, 10/6/20, ending with 9/3/20"><g transform="translate(0.5,300.5)"><path class="background" aria-hidden="true" d="M0,0h0v0h0Z" pointer-events="none"/><g><g class="mark-rule role-axis-tick" pointer-events="none"><line transform="translate(12,0)" x2="0" y2="5" stroke="#888" stroke-width="1" opacity="1"/><line transform="translate(37,0)" x2="0" y2="5" stroke="#888" stroke-width="1" opacity="1"/><line transform="translate(62,0)" x2="0" y2="5" stroke="#888" stroke-width="1" opacity="1"/><line transform="translate(87,0)" x2="0" y2="5" stroke="#888" stroke-width="1" opacity="1"/><line transform="translate(112,0)" x2="0" y2="5" stroke="#888" stroke-width="1" opacity="1"/><line transform="translate(137,0)" x2="0" y2="5" stroke="#888" stroke-width="1" opacity="1"/><line transform="translate(162,0)" x2="0" y2="5" stroke="#888" stroke-width="1" opacity="1"/><line transform="translate(187,0)" x2="0" y2="5" stroke="#888" stroke-width="1" opacity="1"/><line transform="translate(212,0)" x2="0" y2="5" stroke="#888" stroke-width="1" opacity="1"/><line transform="translate(237,0)" x2="0" y2="5" stroke="#888" stroke-width="1" opacity="1"/><line transform="translate(262,0)" x2="0" y2="5" stroke="#888" stroke-width="1" opacity="1"/><line transform="translate(287,0)" x2="0" y2="5" stroke="#888" stroke-width="1" opacity="1"/><line transform="translate(312,0)" x2="0" y2="5" stroke="#888" stroke-width="1" opacity="1"/><line transform="translate(337,0)" x2="0" y2="5" stroke="#888" stroke-width="1" opacity="1"/><line transform="translate(362,0)" x2="0" y2="5" stroke="#888" stroke-width="1" opacity="1"/><line transform="translate(387,0)" x2="0" y2="5" stroke="#888" stroke-width="1" opacity="1"/></g><g class="mark-text role-axis-label" pointer-events="none"><text text-anchor="end" transform="translate(12,7) rotate(270) translate(0,3)" font-family="sans-serif" font-size="10px" fill="#000" opacity="1">1/29/20</text><text text-anchor="end" transform="translate(37,7) rotate(270) translate(0,3)" font-family="sans-serif" font-size="10px" fill="#000" opacity="1">1/7/20</text><text text-anchor="end" transform="translate(62,7) rotate(270) translate(0,3)" font-family="sans-serif" font-size="10px" fill="#000" opacity="1">10/18/20</text><text text-anchor="end" transform="translate(87,7) rotate(270) translate(0,3)" font-family="sans-serif" font-size="10px" fill="#000" opacity="1">10/24/20</text><text text-anchor="end" transform="translate(112,7) rotate(270) translate(0,3)" font-family="sans-serif" font-size="10px" fill="#000" opacity="1">10/6/20</text><text text-anchor="end" transform="translate(137,7) rotate(270) translate(0,3)" font-family="sans-serif" font-size="10px" fill="#000" opacity="1">11/11/19</text><text text-anchor="end" transform="translate(162,7) rotate(270) translate(0,3)" font-family="sans-serif" font-size="10px" fill="#000" opacity="1">11/24/20</text><text text-anchor="end" transform="translate(187,7) rotate(270) translate(0,3)" font-family="sans-serif" font-size="10px" fill="#000" opacity="1">2/17/20</text><text text-anchor="end" transform="translate(212,7) rotate(270) translate(0,3)" font-family="sans-serif" font-size="10px" fill="#000" opacity="1">3/18/20</text><text text-anchor="end" transform="translate(237,7) rotate(270) translate(0,3)" font-family="sans-serif" font-size="10px" fill="#000" opacity="1">4/22/20</text><text text-anchor="end" transform="translate(262,7) rotate(270) translate(0,3)" font-family="sans-serif" font-size="10px" fill="#000" opacity="1">5/24/19</text><text text-anchor="end" transform="translate(287,7) rotate(270) translate(0,3)" font-family="sans-serif" font-size="10px" fill="#000" opacity="1">6/13/20</text><text text-anchor="end" transform="translate(312,7) rotate(270) translate(0,3)" font-family="sans-serif" font-size="10px" fill="#000" opacity="1">6/3/20</text><text text-anchor="end" transform="translate(337,7) rotate(270) translate(0,3)" font-family="sans-serif" font-size="10px" fill="#000" opacity="1">8/18/20</text><text text-anchor="end" transform="translate(362,7) rotate(270) translate(0,3)" font-family="sans-serif" font-size="10px" fill="#000" opacity="1">8/7/20</text><text text-anchor="end" transform="translate(387,7) rotate(270) translate(0,3)" font-family="sans-serif" font-size="10px" fill="#000" opacity="1">9/3/20</text></g><g class="mark-rule role-axis-domain" pointer-events="none"><line transform="translate(0,0)" x2="400" y2="0" stroke="#888" stroke-width="1" opacity="1"/></g><g class="mark-text role-axis-title" pointer-events="none"><text text-anchor="middle" transform="translate(200,58.92578125)" font-family="sans-serif" font-size="11px" font-weight="bold" fill="#000" opacity="1">Année de Lancement</text></g></g><path class="foreground" aria-hidden="true" d="" pointer-events="none" display="none"/></g></g><g class="mark-group role-axis" role="graphics-symbol" aria-roledescription="axis" aria-label="Y-axis titled 'Nombre de Satellites' for a linear scale with values from 0 to 60"><g transform="translate(0.5,0.5)"><path class="background" aria-hidden="true" d="M0,0h0v0h0Z" pointer-events="none"/><g><g class="mark-rule role-axis-tick" pointer-events="none"><line transform="translate(0,300)" x2="-5" y2="0" stroke="#888" stroke-width="1" opacity="1"/><line transform="translate(0,250)" x2="-5" y2="0" stroke="#888" stroke-width="1" opacity="1"/><line transform="translate(0,200)" x2="-5" y2="0" stroke="#888" stroke-width="1" opacity="1"/><line transform="translate(0,150)" x2="-5" y2="0" stroke="#888" stroke-width="1" opacity="1"/><line transform="translate(0,100)" x2="-5" y2="0" stroke="#888" stroke-width="1" opacity="1"/><line transform="translate(0,50)" x2="-5" y2="0" stroke="#888" stroke-width="1" opacity="1"/><line transform="translate(0,0)" x2="-5" y2="0" stroke="#888" stroke-width="1" opacity="1"/></g><g class="mark-text role-axis-label" pointer-events="none"><text text-anchor="end" transform="translate(-7,303)" font-family="sans-serif" font-size="10px" fill="#000" opacity="1">0</text><text text-anchor="end" transform="translate(-7,253)" font-family="sans-serif" font-size="10px" fill="#000" opacity="1">10</text><text text-anchor="end" transform="translate(-7,203.00000000000003)" font-family="sans-serif" font-size="10px" fill="#000" opacity="1">20</text><text text-anchor="end" transform="translate(-7,153)" font-family="sans-serif" font-size="10px" fill="#000" opacity="1">30</text><text text-anchor="end" transform="translate(-7,103.00000000000001)" font-family="sans-serif" font-size="10px" fill="#000" opacity="1">40</text><text text-anchor="end" transform="translate(-7,52.999999999999986)" font-family="sans-serif" font-size="10px" fill="#000" opacity="1">50</text><text text-anchor="end" transform="translate(-7,3)" font-family="sans-serif" font-size="10px" fill="#000" opacity="1">60</text></g><g class="mark-rule role-axis-domain" pointer-events="none"><line transform="translate(0,300)" x2="0" y2="-300" stroke="#888" stroke-width="1" opacity="1"/></g><g class="mark-text role-axis-title" pointer-events="none"><text text-anchor="middle" transform="translate(-22.123046875,150) rotate(-90) translate(0,-2)" font-family="sans-serif" font-size="11px" font-weight="bold" fill="#000" opacity="1">Nombre de Satellites</text></g></g><path class="foreground" aria-hidden="true" d="" pointer-events="none" display="none"/></g></g><g class="mark-rect role-mark marks" role="graphics-object" aria-roledescription="rect mark container"><path aria-label="Année de Lancement: 11/11/19; Nombre de Satellites: 59" role="graphics-symbol" aria-roledescription="bar" d="M126.25,5.000000000000016h22.5v295h-22.5Z" fill="#8B4513"/><path aria-label="Année de Lancement: 1/7/20; Nombre de Satellites: 58" role="graphics-symbol" aria-roledescription="bar" d="M26.25,9.999999999999998h22.5v290h-22.5Z" fill="#8B4513"/><path aria-label="Année de Lancement: 2/17/20; Nombre de Satellites: 59" role="graphics-symbol" aria-roledescription="bar" d="M176.25,5.000000000000016h22.5v295h-22.5Z" fill="#8B4513"/><path aria-label="Année de Lancement: 1/29/20; Nombre de Satellites: 60" role="graphics-symbol" aria-roledescription="bar" d="M1.25,0h22.5v300h-22.5Z" fill="#8B4513"/><path aria-label="Année de Lancement: 3/18/20; Nombre de Satellites: 58" role="graphics-symbol" aria-roledescription="bar" d="M201.25,9.999999999999998h22.5v290h-22.5Z" fill="#8B4513"/><path aria-label="Année de Lancement: 4/22/20; Nombre de Satellites: 60" role="graphics-symbol" aria-roledescription="bar" d="M226.25,0h22.5v300h-22.5Z" fill="#8B4513"/><path aria-label="Année de Lancement: 6/3/20; Nombre de Satellites: 59" role="graphics-symbol" aria-roledescription="bar" d="M301.25,5.000000000000016h22.5v295h-22.5Z" fill="#8B4513"/><path aria-label="Année de Lancement: 6/13/20; Nombre de Satellites: 58" role="graphics-symbol" aria-roledescription="bar" d="M276.25,9.999999999999998h22.5v290h-22.5Z" fill="#8B4513"/><path aria-label="Année de Lancement: 8/7/20; Nombre de Satellites: 57" role="graphics-symbol" aria-roledescription="bar" d="M351.25,15.000000000000014h22.5v285h-22.5Z" fill="#8B4513"/><path aria-label="Année de Lancement: 10/6/20; Nombre de Satellites: 60" role="graphics-symbol" aria-roledescription="bar" d="M101.25,0h22.5v300h-22.5Z" fill="#8B4513"/><path aria-label="Année de Lancement: 8/18/20; Nombre de Satellites: 58" role="graphics-symbol" aria-roledescription="bar" d="M326.25,9.999999999999998h22.5v290h-22.5Z" fill="#8B4513"/><path aria-label="Année de Lancement: 9/3/20; Nombre de Satellites: 60" role="graphics-symbol" aria-roledescription="bar" d="M376.25,0h22.5v300h-22.5Z" fill="#8B4513"/><path aria-label="Année de Lancement: 10/18/20; Nombre de Satellites: 58" role="graphics-symbol" aria-roledescription="bar" d="M51.25,9.999999999999998h22.5v290h-22.5Z" fill="#8B4513"/><path aria-label="Année de Lancement: 11/24/20; Nombre de Satellites: 60" role="graphics-symbol" aria-roledescription="bar" d="M151.25,0h22.5v300h-22.5Z" fill="#8B4513"/><path aria-label="Année de Lancement: 10/24/20; Nombre de Satellites: 58" role="graphics-symbol" aria-roledescription="bar" d="M76.25,9.999999999999998h22.5v290h-22.5Z" fill="#8B4513"/><path aria-label="Année de Lancement: 5/24/19; Nombre de Satellites: 20" role="graphics-symbol" aria-roledescription="bar" d="M251.25,200.00000000000003h22.5v99.99999999999997h-22.5Z" fill="#8B4513"/></g></g><path class="foreground" aria-hidden="true" d="" display="none"/></g></g></g></svg>