<svg xmlns="http://www.w3.org/2000/svg" xmlns:xlink="http://www.w3.org/1999/xlink" version="1.1" class="marks" width="1288" height="952" viewBox="0 0 644 476"><rect width="644" height="476" fill="white"/><g fill="none" stroke-miterlimit="10" transform="translate(39,10)"><g class="mark-group role-frame root" role="graphics-object" aria-roledescription="group mark container"><g transform="translate(0,0)"><path class="background" aria-hidden="true" d="M0.5,0.5h600v400h-600Z" stroke="#ddd"/><g><g class="mark-group role-axis" aria-hidden="true"><g transform="translate(0.5,0.5)"><path class="background" aria-hidden="true" d="M0,0h0v0h0Z" pointer-events="none"/><g><g class="mark-rule role-axis-grid" pointer-events="none"><line transform="translate(0,400)" x2="600" y2="0" stroke="#ddd" stroke-width="1" opacity="1"/><line transform="translate(0,367)" x2="600" y2="0" stroke="#ddd" stroke-width="1" opacity="1"/><line transform="translate(0,333)" x2="600" y2="0" stroke="#ddd" stroke-width="1" opacity="1"/><line transform="translate(0,300)" x2="600" y2="0" stroke="#ddd" stroke-width="1" opacity="1"/><line transform="translate(0,267)" x2="600" y2="0" stroke="#ddd" stroke-width="1" opacity="1"/><line transform="translate(0,233)" x2="600" y2="0" stroke="#ddd" stroke-width="1" opacity="1"/><line transform="translate(0,200)" x2="600" y2="0" stroke="#ddd" stroke-width="1" opacity="1"/><line transform="translate(0,167)" x2="600" y2="0" stroke="#ddd" stroke-width="1" opacity="1"/><line transform="translate(0,133)" x2="600" y2="0" stroke="#ddd" stroke-width="1" opacity="1"/><line transform="translate(0,100)" x2="600" y2="0" stroke="#ddd" stroke-width="1" opacity="1"/><line transform="translate(0,67)" x2="600" y2="0" stroke="#ddd" stroke-width="1" opacity="1"/><line transform="translate(0,33)" x2="600" y2="0" stroke="#ddd" stroke-width="1" opacity="1"/><line transform="translate(0,0)" x2="600" y2="0" stroke="#ddd" stroke-width="1" opacity="1"/></g></g><path class="foreground" aria-hidden="true" d="" pointer-events="none" display="none"/></g></g><g class="mark-group role-axis" role="graphics-symbol" aria-roledescription="axis" aria-label="X-axis titled 'Année de Lancement' for a discrete scale with 16 values: 1/29/20, 1/7/20, 10/18/20, 10/24/20, 10/6/20, ending with 9/3/20"><g transform="translate(0.5,400.5)"><path class="background" aria-hidden="true" d="M0,0h0v0h0Z" pointer-events="none"/><g><g class="mark-rule role-axis-tick" pointer-events="none"><line transform="translate(18,0)" x2="0" y2="5" stroke="#888" stroke-width="1" opacity="1"/><line transform="translate(56,0)" x2="0" y2="5" stroke="#888" stroke-width="1" opacity="1"/><line transform="translate(93,0)" x2="0" y2="5" stroke="#888" stroke-width="1" opacity="1"/><line transform="translate(131,0)" x2="0" y2="5" stroke="#888" stroke-width="1" opacity="1"/><line transform="translate(168,0)" x2="0" y2="5" stroke="#888" stroke-width="1" opacity="1"/><line transform="translate(206,0)" x2="0" y2="5" stroke="#888" stroke-width="1" opacity="1"/><line transform="translate(243,0)" x2="0" y2="5" stroke="#888" stroke-width="1" opacity="1"/><line transform="translate(281,0)" x2="0" y2="5" stroke="#888" stroke-width="1" opacity="1"/><line transform="translate(318,0)" x2="0" y2="5" stroke="#888" stroke-width="1" opacity="1"/><line transform="translate(356,0)" x2="0" y2="5" stroke="#888" stroke-width="1" opacity="1"/><line transform="translate(393,0)" x2="0" y2="5" stroke="#888" stroke-width="1" opacity="1"/><line transform="translate(431,0)" x2="0" y2="5" stroke="#888" stroke-width="1" opacity="1"/><line transform="translate(468,0)" x2="0" y2="5" stroke="#888" stroke-width="1" opacity="1"/><line transform="translate(506,0)" x2="0" y2="5" stroke="#888" stroke-width="1" opacity="1"/><line transform="translate(543,0)" x2="0" y2="5" stroke="#888" stroke-width="1" opacity="1"/><line transform="translate(581,0)" x2="0" y2="5" stroke="#888" stroke-width="1" opacity="1"/></g><g class="mark-text role-axis-label" pointer-events="none"><text text-anchor="end" transform="translate(18.25,7) rotate(270) translate(0,3)" font-family="sans-serif" font-size="10px" fill="#000" opacity="1">1/29/20</text><text text-anchor="end" transform="translate(55.75,7) rotate(270) translate(0,3)" font-family="sans-serif" font-size="10px" fill="#000" opacity="1">1/7/20</text><text text-anchor="end" transform="translate(93.25,7) rotate(270) translate(0,3)" font-family="sans-serif" font-size="10px" fill="#000" opacity="1">10/18/20</text><text text-anchor="end" transform="translate(130.75,7) rotate(270) translate(0,3)" font-family="sans-serif" font-size="10px" fill="#000" opacity="1">10/24/20</text><text text-anchor="end" transform="translate(168.25,7) rotate(270) translate(0,3)" font-family="sans-serif" font-size="10px" fill="#000" opacity="1">10/6/20</text><text text-anchor="end" transform="translate(205.75,7) rotate(270) translate(0,3)" font-family="sans-serif" font-size="10px" fill="#000" opacity="1">11/11/19</text><text text-anchor="end" transform="translate(243.25,7) rotate(270) translate(0,3)" font-family="sans-serif" font-size="10px" fill="#000" opacity="1">11/24/20</text><text text-anchor="end" transform="translate(280.75,7) rotate(270) translate(0,3)" font-family="sans-serif" font-size="10px" fill="#000" opacity="1">2/17/20</text><text text-anchor="end" transform="translate(318.25,7) rotate(270) translate(0,3)" font-family="sans-serif" font-size="10px" fill="#000" opacity="1">3/18/20</text><text text-anchor="end" transform="translate(355.75,7) rotate(270) translate(0,3)" font-family="sans-serif" font-size="10px" fill="#000" opacity="1">4/22/20</text><text text-anchor="end" transform="translate(393.25,7) rotate(270) translate(0,3)" font-family="sans-serif" font-size="10px" fill="#000" opacity="1">5/24/19</text><text text-anchor="end" transform="translate(430.75,7) rotate(270) translate(0,3)" font-family="sans-serif" font-size="10px" fill="#000" opacity="1">6/13/20</text><text text-anchor="end" transform="translate(468.25,7) rotate(270) translate(0,3)" font-family="sans-serif" font-size="10px" fill="#000" opacity="1">6/3/20</text><text text-anchor="end" transform="translate(505.75,7) rotate(270) translate(0,3)" font-family="sans-serif" font-size="10px" fill="#000" opacity="1">8/18/20</text><text text-anchor="end" transform="translate(543.25,7) rotate(270) translate(0,3)" font-family="sans-serif" font-size="10px" fill="#000" opacity="1">8/7/20</text><text text-anchor="end" transform="translate(580.75,7) rotate(270) translate(0,3)" font-family="sans-serif" font-size="10px" fill="#000" opacity="1">9/3/20</text></g><g class="mark-rule role-axis-domain" pointer-events="none"><line transform="translate(0,0)" x2="600" y2="0" stroke="#888" stroke-width="1" opacity="1"/></g><g class="mark-text role-axis-title" pointer-events="none"><text text-anchor="middle" transform="translate(300,58.92578125)" font-family="sans-serif" font-size="11px" font-weight="bold" fill="#000" opacity="1">Année de Lancement</text></g></g><path class="foreground" aria-hidden="true" d="" pointer-events="none" display="none"/></g></g><g class="mark-group role-axis" role="graphics-symbol" aria-roledescription="axis" aria-label="Y-axis titled 'Nombre de Satellites' for a linear scale with values from 0 to 60"><g transform="translate(0.5,0.5)"><path class="background" aria-hidden="true" d="M0,0h0v0h0Z" pointer-events="none"/><g><g class="mark-rule role-axis-tick" pointer-events="none"><line transform="translate(0,400)" x2="-5" y2="0" stroke="#888" stroke-width="1" opacity="1"/><line transform="translate(0,367)" x2="-5" y2="0" stroke="#888" stroke-width="1" opacity="1"/><line transform="translate(0,333)" x2="-5" y2="0" stroke="#888" stroke-width="1" opacity="1"/><line transform="translate(0,300)" x2="-5" y2="0" stroke="#888" stroke-width="1" opacity="1"/><line transform="translate(0,267)" x2="-5" y2="0" stroke="#888" stroke-width="1" opacity="1"/><line transform="translate(0,233)" x2="-5" y2="0" stroke="#888" stroke-width="1" opacity="1"/><line transform="translate(0,200)" x2="-5" y2="0" stroke="#888" stroke-width="1" opacity="1"/><line transform="translate(0,167)" x2="-5" y2="0" stroke="#888" stroke-width="1" opacity="1"/><line transform="translate(0,133)" x2="-5" y2="0" stroke="#888" stroke-width="1" opacity="1"/><line transform="translate(0,100)" x2="-5" y2="0" stroke="#888" stroke-width="1" opacity="1"/><line transform="translate(0,67)" x2="-5" y2="0" stroke="#888" stroke-width="1" opacity="1"/><line transform="translate(0,33)" x2="-5" y2="0" stroke="#888" stroke-width="1" opacity="1"/><line transform="translate(0,0)" x2="-5" y2="0" stroke="#888" stroke-width="1" opacity="1"/></g><g class="mark-text role-axis-label" pointer-events="none"><text text-anchor="end" transform="translate(-7,403)" font-family="sans-serif" font-size="10px" fill="#000" opacity="1">0</text><text text-anchor="end" transform="translate(-7,369.66666666666663)" font-family="sans-serif" font-size="10px" fill="#000" opacity="1">5</text><text text-anchor="end" transform="translate(-7,336.33333333333337)" font-family="sans-serif" font-size="10px" fill="#000" opacity="1">10</text><text text-anchor="end" transform="translate(-7,303)" font-family="sans-serif" font-size="10px" fill="#000" opacity="1">15</text><text text-anchor="end" transform="translate(-7,269.6666666666667)" font-family="sans-serif" font-size="10px" fill="#000" opacity="1">20</text><text text-anchor="end" transform="translate(-7,236.33333333333331)" font-family="sans-serif" font-size="10px" fill="#000" opacity="1">25</text><text text-anchor="end" transform="translate(-7,203)" font-family="sans-serif" font-size="10px" fill="#000" opacity="1">30</text><text text-anchor="end" transform="translate(-7,169.66666666666666)" font-family="sans-serif" font-size="10px" fill="#000" opacity="1">35</text><text text-anchor="end" transform="translate(-7,136.33333333333334)" font-family="sans-serif" font-size="10px" fill="#000" opacity="1">40</text><text text-anchor="end" transform="translate(-7,103)" font-family="sans-serif" font-size="10px" fill="#000" opacity="1">45</text><text text-anchor="end" transform="translate(-7,69.66666666666666)" font-family="sans-serif" font-size="10px" fill="#000" opacity="1">50</text><text text-anchor="end" transform="translate(-7,36.33333333333335)" font-family="sans-serif" font-size="10px" fill="#000" opacity="1">55</text><text text-anchor="end" transform="translate(-7,3)" font-family="sans-serif" font-size="10px" fill="#000" opacity="1">60</text></g><g class="mark-rule role-axis-domain" pointer-events="none"><line transform="translate(0,400)" x2="0" y2="-400" stroke="#888" stroke-width="1" opacity="1"/></g><g class="mark-text role-axis-title" pointer-events="none"><text text-anchor="middle" transform="translate(-22.123046875,200) rotate(-90) translate(0,-2)" font-family="sans-serif" font-size="11px" font-weight="bold" fill="#000" opacity="1">Nombre de Satellites</text></g></g><path class="foreground" aria-hidden="true" d="" pointer-events="none" display="none"/></g></g><g class="mark-rect role-mark marks" role="graphics-object" aria-roledescription="rect mark container"><path aria-label="Année de Lancement: 11/11/19; Nombre de Satellites: 59" role="graphics-symbol" aria-roledescription="bar" d="M189.375,6.666666666666687h33.75v393.3333333333333h-33.75Z" fill="#4c78a8"/><path aria-label="Année de Lancement: 1/7/20; Nombre de Satellites: 58" role="graphics-symbol" aria-roledescription="bar" d="M39.375,13.33333333333333h33.75v386.6666666666667h-33.75Z" fill="#4c78a8"/><path aria-label="Année de Lancement: 2/17/20; Nombre de Satellites: 59" role="graphics-symbol" aria-roledescription="bar" d="M264.375,6.666666666666687h33.75v393.3333333333333h-33.75Z" fill="#4c78a8"/><path aria-label="Année de Lancement: 1/29/20; Nombre de Satellites: 60" role="graphics-symbol" aria-roledescription="bar" d="M1.875,0h33.75v400h-33.75Z" fill="#4c78a8"/><path aria-label="Année de Lancement: 3/18/20; Nombre de Satellites: 58" role="graphics-symbol" aria-roledescription="bar" d="M301.875,13.33333333333333h33.75v386.6666666666667h-33.75Z" fill="#4c78a8"/><path aria-label="Année de Lancement: 4/22/20; Nombre de Satellites: 60" role="graphics-symbol" aria-roledescription="bar" d="M339.375,0h33.75v400h-33.75Z" fill="#4c78a8"/><path aria-label="Année de Lancement: 6/3/20; Nombre de Satellites: 59" role="graphics-symbol" aria-roledescription="bar" d="M451.875,6.666666666666687h33.75v393.3333333333333h-33.75Z" fill="#4c78a8"/><path aria-label="Année de Lancement: 6/13/20; Nombre de Satellites: 58" role="graphics-symbol" aria-roledescription="bar" d="M414.375,13.33333333333333h33.75v386.6666666666667h-33.75Z" fill="#4c78a8"/><path aria-label="Année de Lancement: 8/7/20; Nombre de Satellites: 57" role="graphics-symbol" aria-roledescription="bar" d="M526.875,20.000000000000018h33.75v380h-33.75Z" fill="#4c78a8"/><path aria-label="Année de Lancement: 10/6/20; Nombre de Satellites: 60" role="graphics-symbol" aria-roledescription="bar" d="M151.875,0h33.75v400h-33.75Z" fill="#4c78a8"/><path aria-label="Année de Lancement: 8/18/20; Nombre de Satellites: 58" role="graphics-symbol" aria-roledescription="bar" d="M489.375,13.33333333333333h33.75v386.6666666666667h-33.75Z" fill="#4c78a8"/><path aria-label="Année de Lancement: 9/3/20; Nombre de Satellites: 60" role="graphics-symbol" aria-roledescription="bar" d="M564.375,0h33.75v400h-33.75Z" fill="#4c78a8"/><path aria-label="Année de Lancement: 10/18/20; Nombre de Satellites: 58" role="graphics-symbol" aria-roledescription="bar" d="M76.875,13.33333333333333h33.75v386.6666666666667h-33.75Z" fill="#4c78a8"/><path aria-label="Année de Lancement: 11/24/20; Nombre de Satellites: 60" role="graphics-symbol" aria-roledescription="bar" d="M226.875,0h33.75v400h-33.75Z" fill="#4c78a8"/><path aria-label="Année de Lancement: 10/24/20; Nombre de Satellites: 58" role="graphics-symbol" aria-roledescription="bar" d="M114.375,13.33333333333333h33.75v386.6666666666667h-33.75Z" fill="#4c78a8"/><path aria-label="Année de Lancement: 5/24/19; Nombre de Satellites: 20" role="graphics-symbol" aria-roledescription="bar" d="M376.875,266.6666666666667h33.75v133.33333333333331h-33.75Z" fill="#4c78a8"/></g></g><path class="foreground" aria-hidden="true" d="" display="none"/></g></g></g></svg>